<svg height="64" viewBox="0 0 64 64" width="64" xmlns="http://www.w3.org/2000/svg"><g fill="none" fill-rule="evenodd"><circle cx="33" cy="32" fill="#ffaf40" r="29"/><circle cx="33" cy="32" r="24" stroke="#ffdd95" stroke-linecap="round" stroke-width="2"/><path d="m32.9176365 5v-1m12.5451514 4.09143309.4694716-.88294759m9.2078572 9.4565222.8191521-.5735765m3.7615886 12.6547448.9925462-.1218694m-2.5496107 12.9481438.9335804.358368m-8.278429 10.2816548.6691306.7431448m-12.1102186 5.2601341.2419219.9702957m-13.1623616-.9702957-.2419219.9702957m-11.199166-6.9735746-.6691306.7431448m-6.6757181-11.3831676-.93358043.358368m-.62348407-13.1846424-.99254616-.1218694m5.57328686-11.9592989-.81915208-.5735765m10.49648088-7.99999811-.4694716-.88294759" stroke="#ffdd95" stroke-linecap="round" stroke-width="2"/><text fill="#ffdd95" font-family="MarkerFelt-Thin, Marker Felt" font-size="44" font-weight="300"><tspan x="22" y="49">$</tspan></text></g></svg>